Coordinates
version=1
nRows=38
nColumns=38
inDegrees=no

Units are S.I. units (second, meters, Newtons, ...)
If the header above contains a line with 'inDegrees', this indicates whether rotational values are in degrees (yes) or radians (no).

endheader
time	pelvis_tilt	pelvis_list	pelvis_rotation	pelvis_tx	pelvis_ty	pelvis_tz	hip_flexion_r	hip_adduction_r	hip_rotation_r	knee_angle_r	ankle_angle_r	subtalar_angle_r	mtp_angle_r	hip_flexion_l	hip_adduction_l	hip_rotation_l	knee_angle_l	ankle_angle_l	subtalar_angle_l	mtp_angle_l	lumbar_extension	lumbar_bending	lumbar_rotation	arm_flex_r	arm_add_r	arm_rot_r	elbow_flex_r	pro_sup_r	wrist_flex_r	wrist_dev_r	arm_flex_l	arm_add_l	arm_rot_l	elbow_flex_l	pro_sup_l	wrist_flex_l	wrist_dev_l
1.03	-2.79812	1.43281	-2.04077	1.02267	0.433723	0.935349	-0.304642	-0.075964	-0.3662	0.24408	0.211893	0	0	0.30518	-0.0110972	-0.489163	0.1168	0.0850223	0	0	-0.105893	-0.0798975	0.269063	0.348248	-0.460124	-0.214785	1.52977	1.5708	0	0	0.40412	-0.480241	0.0224388	1.71288	1.02755	0	0
1.04	-2.80874	1.43699	-2.03016	1.02185	0.44655	0.931978	-0.313518	-0.0766744	-0.36857	0.251155	0.224192	0	0	0.292606	-0.000977998	-0.477806	0.0630917	0.0785407	0	0	-0.0991181	-0.0749808	0.270341	0.349724	-0.461011	-0.213326	1.52567	1.5708	0	0	0.404224	-0.478282	0.0219492	1.71115	1.03019	0	0
1.05	-2.81864	1.44005	-2.02146	1.02147	0.459237	0.928727	-0.321549	-0.0797032	-0.371328	0.262699	0.236822	0	0	0.280327	0.00710982	-0.465745	0.0229483	0.0719459	0	0	-0.0927122	-0.0710098	0.272842	0.350267	-0.460964	-0.213029	1.52138	1.5708	0	0	0.404442	-0.477096	0.0227463	1.70918	1.0322	0	0
1.06	-2.82896	1.44	-2.01463	1.02118	0.47277	0.925686	-0.331198	-0.0874019	-0.393812	0.277277	0.260653	0	0	0.267668	0.0127948	-0.459475	0.000765578	0.0695107	0	0	-0.0872402	-0.0678108	0.278254	0.349292	-0.460035	-0.214266	1.51778	1.5708	0	0	0.402494	-0.476267	0.0229591	1.70827	1.03322	0	0
1.07	-2.82954	1.43882	-2.01822	1.02111	0.486025	0.922781	-0.339053	-0.0982272	-0.407424	0.297046	0.277903	0	0	0.259397	0.0168739	-0.453392	0	0.0683365	0	0	-0.0825672	-0.0666346	0.283784	0.347668	-0.457654	-0.2162	1.51561	1.5708	0	0	0.402651	-0.477283	0.0250261	1.70688	1.03567	0	0
1.08	-2.81766	1.43883	-2.03109	1.0209	0.498812	0.920134	-0.342385	-0.105194	-0.381315	0.321148	0.269106	0	0	0.25501	0.0219019	-0.439767	0.00820765	0.064429	0	0	-0.0798693	-0.0696478	0.285579	0.345088	-0.453848	-0.21803	1.51544	1.5708	0	0	0.408501	-0.480497	0.0311364	1.7045	1.03963	0	0
1.09	-2.82512	1.43472	-2.02703	1.02071	0.512562	0.917942	-0.352452	-0.114696	-0.379316	0.342073	0.272088	0	0	0.248692	0.0232069	-0.43564	0.035259	0.0685698	0	0	-0.0795079	-0.0699397	0.290318	0.341175	-0.451121	-0.221312	1.51567	1.5708	0	0	0.409284	-0.482716	0.0346221	1.70385	1.04267	0	0
1.1	-2.83076	1.42925	-2.02417	1.02028	0.526521	0.915928	-0.361839	-0.126054	-0.378567	0.366855	0.27425	0	0	0.242998	0.024985	-0.43192	0.0683256	0.0798197	0	0	-0.0803541	-0.0715551	0.295416	0.335077	-0.449054	-0.227056	1.51676	1.5708	0	0	0.411473	-0.485011	0.0385804	1.70476	1.0441	0	0
1.11	-2.82468	1.42276	-2.03249	1.01962	0.540682	0.914106	-0.369989	-0.140292	-0.377179	0.394681	0.274617	0	0	0.2356	0.0306469	-0.42577	0.093667	0.0902929	0	0	-0.0808622	-0.0762938	0.301356	0.325699	-0.446987	-0.235659	1.51852	1.5708	0	0	0.415548	-0.487578	0.0449805	1.70714	1.04306	0	0
1.12	-2.79648	1.41615	-2.06191	1.01858	0.555317	0.91249	-0.374637	-0.158628	-0.376756	0.426906	0.271771	0	0	0.22601	0.0422752	-0.417651	0.102455	0.0819033	0	0	-0.0794862	-0.0836124	0.303948	0.31764	-0.442487	-0.241216	1.51955	1.5708	0	0	0.415677	-0.492268	0.048422	1.71057	1.04087	0	0
1.13	-2.75945	1.40858	-2.09888	1.0175	0.570163	0.911219	-0.377656	-0.181181	-0.387167	0.46335	0.27118	0	0	0.212527	0.0571432	-0.415443	0.0981744	0.044868	0	0	-0.0772305	-0.0919922	0.30374	0.310737	-0.436508	-0.245117	1.51933	1.5708	0	0	0.411747	-0.498183	0.0496896	1.71353	1.03839	0	0
1.14	-2.72069	1.40127	-2.13507	1.01608	0.584883	0.910271	-0.375539	-0.202193	-0.382967	0.506537	0.255469	0	0	0.200852	0.0707262	-0.419404	0.0956509	-0.0109172	0	0	-0.0757308	-0.101883	0.300542	0.303836	-0.430343	-0.247491	1.51959	1.5708	0	0	0.409669	-0.505151	0.0521431	1.71642	1.03539	0	0
1.15	-2.70272	1.39349	-2.15065	1.0138	0.600278	0.910062	-0.375881	-0.234942	-0.391028	0.55476	0.241053	0	0	0.188722	0.0776995	-0.43765	0.104996	-0.0528598	0	0	-0.0755617	-0.108118	0.296654	0.296284	-0.425472	-0.251123	1.51957	1.5708	0	0	0.407052	-0.510872	0.0547676	1.71944	1.03242	0	0
1.16	-2.67242	1.38024	-2.17624	1.01202	0.614575	0.910535	-0.366553	-0.259981	-0.38142	0.616015	0.201859	0	0	0.181191	0.087396	-0.454698	0.133456	-0.0729391	0	0	-0.0816942	-0.121603	0.291418	0.290315	-0.419673	-0.25351	1.51956	1.5708	0	0	0.408158	-0.516698	0.0585144	1.72188	1.02847	0	0
1.17	-2.64693	1.36539	-2.19661	1.01024	0.628485	0.911688	-0.35094	-0.285746	-0.366744	0.684126	0.146189	0	0	0.175638	0.0950641	-0.46424	0.173482	-0.0730458	0	0	-0.0905594	-0.135889	0.285377	0.285395	-0.414305	-0.253963	1.51925	1.5708	0	0	0.409673	-0.52165	0.0608749	1.72461	1.02586	0	0
1.18	-2.62092	1.35179	-2.2164	1.00835	0.641871	0.913092	-0.325826	-0.311156	-0.347601	0.757841	0.0724346	0	0	0.173611	0.101144	-0.469936	0.218831	-0.0621581	0	0	-0.0993447	-0.149548	0.277923	0.281581	-0.410273	-0.251736	1.51948	1.5708	0	0	0.411265	-0.525864	0.0621738	1.72653	1.02521	0	0
1.19	-2.59028	1.34259	-2.24004	1.00639	0.654927	0.914287	-0.289432	-0.334333	-0.323585	0.834659	-0.0126313	0	0	0.176119	0.105205	-0.476415	0.263523	-0.0470045	0	0	-0.103803	-0.160555	0.269186	0.2788	-0.407711	-0.246338	1.51986	1.5708	0	0	0.410822	-0.530367	0.0624985	1.72766	1.02592	0	0
1.2	-2.55758	1.33692	-2.26551	1.00439	0.667915	0.915178	-0.245376	-0.354235	-0.294879	0.911103	-0.0948655	0	0	0.178801	0.109414	-0.480764	0.300456	-0.0311371	0	0	-0.104271	-0.16897	0.260183	0.276542	-0.40702	-0.238704	1.52076	1.5708	0	0	0.408733	-0.535436	0.0611474	1.72981	1.02565	0	0
1.21	-2.53552	1.33193	-2.28092	1.00221	0.680615	0.915971	-0.199022	-0.370121	-0.262808	0.985936	-0.171635	0	0	0.176323	0.11548	-0.479508	0.32656	-0.0159414	0	0	-0.105542	-0.175744	0.255263	0.271524	-0.410576	-0.235511	1.52393	1.5708	0	0	0.413174	-0.53881	0.0678653	1.72975	1.02505	0	0
1.22	-2.52361	1.32896	-2.28638	0.999962	0.693122	0.916658	-0.150368	-0.380513	-0.230172	1.05808	-0.24312	0	0	0.170445	0.122111	-0.473431	0.343382	-0.00567629	0	0	-0.10713	-0.177896	0.249658	0.268761	-0.415909	-0.230689	1.52742	1.5708	0	0	0.416739	-0.542074	0.0742323	1.72806	1.02581	0	0
1.23	-2.52667	1.32585	-2.27742	0.997814	0.705477	0.917529	-0.104767	-0.385883	-0.200048	1.12329	-0.307942	0	0	0.157926	0.12928	-0.463453	0.350163	-0.00471822	0	0	-0.111588	-0.176052	0.242657	0.269552	-0.420625	-0.224704	1.52996	1.5708	0	0	0.41861	-0.545673	0.0790989	1.72522	1.02576	0	0
1.24	-2.5412	1.32089	-2.25794	0.995866	0.71775	0.91873	-0.0662676	-0.387719	-0.172629	1.17821	-0.35527	0	0	0.138195	0.138021	-0.449786	0.348381	-0.00907827	0	0	-0.11954	-0.173047	0.23533	0.272497	-0.423561	-0.219616	1.53152	1.5708	0	0	0.41984	-0.549278	0.0806921	1.72526	1.02219	0	0
1.25	-2.56193	1.31277	-2.23314	0.994196	0.729931	0.920374	-0.0360987	-0.387634	-0.147195	1.22565	-0.36221	0	0	0.111585	0.149571	-0.430572	0.3398	-0.0144157	0	0	-0.131553	-0.171085	0.227983	0.276984	-0.42392	-0.217111	1.53229	1.5708	0	0	0.421399	-0.55323	0.0811156	1.72714	1.01491	0	0
1.26	-2.58035	1.30522	-2.21063	0.992702	0.741992	0.922158	-0.00651768	-0.385369	-0.123239	1.27381	-0.323706	0	0	0.0847526	0.160456	-0.411299	0.329898	-0.0181475	0	0	-0.143179	-0.168962	0.220209	0.281945	-0.421077	-0.217844	1.53294	1.5708	0	0	0.422033	-0.55695	0.0801699	1.73002	1.00641	0	0
1.27	-2.59598	1.29983	-2.19111	0.99141	0.75409	0.924015	0.0244881	-0.380752	-0.101668	1.32032	-0.260196	0	0	0.0597552	0.16899	-0.39223	0.319909	-0.0206864	0	0	-0.152152	-0.166093	0.213402	0.285337	-0.416632	-0.220823	1.53406	1.5708	0	0	0.421371	-0.55992	0.0793153	1.73371	0.997322	0	0
1.28	-2.61458	1.29566	-2.16891	0.990158	0.766117	0.926067	0.0542194	-0.373645	-0.0841695	1.35932	-0.195942	0	0	0.0350498	0.174875	-0.374679	0.310988	-0.0194261	0	0	-0.159901	-0.163445	0.211371	0.2827	-0.413455	-0.231857	1.53668	1.5708	0	0	0.426796	-0.559736	0.0863355	1.73463	0.991541	0	0
1.29	-2.63379	1.2932	-2.14592	0.988913	0.778065	0.928256	0.0829352	-0.364423	-0.0704217	1.38866	-0.143433	0	0	0.0102184	0.178526	-0.357033	0.301365	-0.013331	0	0	-0.165922	-0.158989	0.20859	0.28042	-0.410794	-0.241447	1.53857	1.5708	0	0	0.4295	-0.558654	0.0896866	1.73666	0.987522	0	0
1.3	-2.65307	1.29126	-2.12289	0.987678	0.789892	0.930623	0.109575	-0.354457	-0.0591086	1.40824	-0.101292	0	0	-0.0151847	0.180315	-0.343522	0.291334	-0.00615986	0	0	-0.171285	-0.153282	0.204281	0.279967	-0.408924	-0.247737	1.53924	1.5708	0	0	0.429269	-0.557421	0.0895152	1.73919	0.984493	0	0
1.31	-2.67193	1.29047	-2.10038	0.986433	0.801539	0.933047	0.135318	-0.343283	-0.0494157	1.41995	-0.06827	0	0	-0.0402055	0.180156	-0.333281	0.279921	0.000619806	0	0	-0.175302	-0.146443	0.199169	0.2805	-0.408447	-0.250906	1.5392	1.5708	0	0	0.42756	-0.556088	0.0887536	1.73996	0.983059	0	0
1.32	-2.69112	1.29105	-2.07734	0.985206	0.813001	0.935382	0.160889	-0.3311	-0.0421356	1.42571	-0.0378929	0	0	-0.0640603	0.178125	-0.32575	0.267997	0.00699552	0	0	-0.177861	-0.138572	0.193321	0.281908	-0.409449	-0.251337	1.53862	1.5708	0	0	0.42522	-0.555039	0.0880551	1.73926	0.982156	0	0
1.33	-2.70975	1.29329	-2.05435	0.983964	0.824271	0.937505	0.18695	-0.31847	-0.0376449	1.42589	-0.0109102	0	0	-0.0852608	0.174644	-0.320266	0.25691	0.012788	0	0	-0.178761	-0.129892	0.186515	0.28452	-0.41207	-0.248742	1.53754	1.5708	0	0	0.421838	-0.554085	0.0841034	1.74145	0.978759	0	0
1.34	-2.72675	1.29686	-2.03128	0.982525	0.83526	0.939383	0.212662	-0.306682	-0.0369302	1.41998	0.0117744	0	0	-0.103297	0.170625	-0.314093	0.247379	0.0177883	0	0	-0.178568	-0.120823	0.178065	0.28833	-0.416054	-0.244312	1.53616	1.5708	0	0	0.419511	-0.553346	0.0809209	1.7433	0.976386	0	0
1.35	-2.74455	1.30115	-2.00547	0.980899	0.845941	0.941075	0.236764	-0.295547	-0.0401723	1.40797	0.0301738	0	0	-0.118647	0.165812	-0.306523	0.240231	0.022812	0	0	-0.178472	-0.111244	0.168208	0.292901	-0.421272	-0.239657	1.53513	1.5708	0	0	0.41933	-0.552588	0.0787314	1.74534	0.974335	0	0
1.36	-2.76446	1.30612	-1.97603	0.979184	0.856517	0.942606	0.259023	-0.284897	-0.0473915	1.39058	0.0479114	0	0	-0.132535	0.159952	-0.29796	0.234031	0.027705	0	0	-0.178107	-0.101019	0.157717	0.297162	-0.427307	-0.235722	1.5346	1.5708	0	0	0.420772	-0.551615	0.0781148	1.74651	0.973113	0	0
1.37	-2.78701	1.31069	-1.943	0.977458	0.867009	0.944065	0.278411	-0.274952	-0.0581142	1.36805	0.0660033	0	0	-0.147184	0.153607	-0.287334	0.226876	0.0319491	0	0	-0.178627	-0.0905176	0.147059	0.301105	-0.4335	-0.233269	1.53473	1.5708	0	0	0.423588	-0.550632	0.0792914	1.74708	0.971503	0	0
1.38	-2.8112	1.31436	-1.90823	0.975782	0.877478	0.945474	0.294524	-0.26582	-0.0713319	1.34032	0.0823569	0	0	-0.163492	0.14737	-0.276469	0.217931	0.0359431	0	0	-0.180176	-0.0801596	0.1368	0.304621	-0.439477	-0.23249	1.53555	1.5708	0	0	0.42742	-0.549768	0.0819271	1.74738	0.968438	0	0
1.39	-2.83589	1.31759	-1.87262	0.974152	0.887903	0.946748	0.308025	-0.257611	-0.0868897	1.30754	0.0952038	0	0	-0.180582	0.140987	-0.26422	0.207933	0.0404873	0	0	-0.182247	-0.0701205	0.126572	0.307732	-0.444622	-0.233389	1.53687	1.5708	0	0	0.432123	-0.549015	0.0855581	1.74783	0.965075	0	0
1.4	-2.85989	1.31992	-1.83795	0.972624	0.898309	0.947887	0.318733	-0.250607	-0.103629	1.27021	0.104879	0	0	-0.198586	0.134645	-0.250918	0.197832	0.0447742	0	0	-0.185072	-0.0609189	0.116936	0.310484	-0.449466	-0.235428	1.53877	1.5708	0	0	0.43768	-0.548403	0.0898869	1.74873	0.962642	0	0
